<svg width="12" height="14" viewBox="0 0 12 14" fill="none" xmlns="http://www.w3.org/2000/svg">
<path d="M7.75033 0.583252C7.90504 0.583252 8.05341 0.64471 8.16281 0.754106C8.2722 0.863503 8.33366 1.01188 8.33366 1.16659C8.33366 1.32129 8.2722 1.46967 8.16281 1.57906C8.05341 1.68846 7.90504 1.74992 7.75033 1.74992H1.33366V9.33325C1.33366 9.48796 1.2722 9.63633 1.1628 9.74573C1.05341 9.85513 0.905035 9.91658 0.750326 9.91658C0.595616 9.91658 0.447243 9.85513 0.337847 9.74573C0.22845 9.63633 0.166992 9.48796 0.166992 9.33325V1.74992C0.166992 1.10825 0.691992 0.583252 1.33366 0.583252H7.75033Z" fill="#7AF5BF"/>
<path d="M3.66667 2.9165H10.0833C10.3928 2.9165 10.6895 3.03942 10.9083 3.25821C11.1271 3.47701 11.25 3.77375 11.25 4.08317V12.2498C11.25 12.5593 11.1271 12.856 10.9083 13.0748C10.6895 13.2936 10.3928 13.4165 10.0833 13.4165H3.66667C3.35725 13.4165 3.0605 13.2936 2.84171 13.0748C2.62292 12.856 2.5 12.5593 2.5 12.2498V4.08317C2.5 3.77375 2.62292 3.47701 2.84171 3.25821C3.0605 3.03942 3.35725 2.9165 3.66667 2.9165Z" fill="#7AF5BF"/>
</svg>
