<svg width="20" height="18" viewBox="0 0 20 18" fill="none" xmlns="http://www.w3.org/2000/svg">
<path d="M7.5625 7.35938H18.8125C18.9156 7.35938 19 7.275 19 7.17188V5.85938C19 5.75625 18.9156 5.67188 18.8125 5.67188H7.5625C7.45937 5.67188 7.375 5.75625 7.375 5.85938V7.17188C7.375 7.275 7.45937 7.35938 7.5625 7.35938ZM7.375 12.1406C7.375 12.2437 7.45937 12.3281 7.5625 12.3281H18.8125C18.9156 12.3281 19 12.2437 19 12.1406V10.8281C19 10.725 18.9156 10.6406 18.8125 10.6406H7.5625C7.45937 10.6406 7.375 10.725 7.375 10.8281V12.1406ZM19.1875 0.75H0.8125C0.709375 0.75 0.625 0.834375 0.625 0.9375V2.25C0.625 2.35312 0.709375 2.4375 0.8125 2.4375H19.1875C19.2906 2.4375 19.375 2.35312 19.375 2.25V0.9375C19.375 0.834375 19.2906 0.75 19.1875 0.75ZM19.1875 15.5625H0.8125C0.709375 15.5625 0.625 15.6469 0.625 15.75V17.0625C0.625 17.1656 0.709375 17.25 0.8125 17.25H19.1875C19.2906 17.25 19.375 17.1656 19.375 17.0625V15.75C19.375 15.6469 19.2906 15.5625 19.1875 15.5625ZM0.704688 9.16172L4.36797 12.0469C4.50391 12.1547 4.70547 12.0586 4.70547 11.8852V6.11484C4.70547 5.94141 4.50625 5.84531 4.36797 5.95312L0.704688 8.83828C0.680055 8.85743 0.660123 8.88196 0.646412 8.90998C0.632701 8.93801 0.625574 8.9688 0.625574 9C0.625574 9.0312 0.632701 9.06199 0.646412 9.09002C0.660123 9.11804 0.680055 9.14257 0.704688 9.16172Z" fill="white"/>
</svg>
