<svg width="12" height="13" viewBox="0 0 12 13" fill="none" xmlns="http://www.w3.org/2000/svg">
<path d="M2.21544 1.30339L2.96383 0.555002C2.98185 0.536886 2.99443 0.514075 3.00014 0.489163C3.00584 0.464251 3.00444 0.438238 2.99609 0.414083C2.98774 0.389927 2.97279 0.3686 2.95292 0.352525C2.93305 0.336451 2.90907 0.326275 2.8837 0.323155L0.152679 0.000955625C0.0657363 -0.00927293 -0.00927292 0.0640316 0.000955625 0.152679L0.323155 2.8837C0.336793 2.99622 0.474878 3.04395 0.555002 2.96383L1.29998 2.21885L3.57924 4.4964C3.63209 4.54925 3.71903 4.54925 3.77188 4.4964L4.4947 3.77529C4.54755 3.72244 4.54755 3.6355 4.4947 3.58265L2.21544 1.30339ZM8.22812 4.4964C8.28097 4.54925 8.36791 4.54925 8.42076 4.4964L10.7 2.21885L11.445 2.96383C11.4631 2.98185 11.4859 2.99443 11.5108 3.00014C11.5357 3.00584 11.5618 3.00444 11.5859 2.99609C11.6101 2.98774 11.6314 2.97279 11.6475 2.95292C11.6635 2.93305 11.6737 2.90907 11.6768 2.8837L11.999 0.154384C12.0093 0.0674412 11.936 -0.00756806 11.8473 0.00266049L9.1163 0.32486C9.00378 0.338498 8.95605 0.476583 9.03617 0.556707L9.78456 1.3051L7.5053 3.58095C7.47992 3.60658 7.46568 3.64119 7.46568 3.67727C7.46568 3.71334 7.47992 3.74795 7.5053 3.77359L8.22812 4.4964ZM11.6768 9.11971C11.6632 9.00719 11.5251 8.95946 11.445 9.03958L10.7 9.78456L8.42076 7.50701C8.39512 7.48163 8.36051 7.46739 8.32444 7.46739C8.28837 7.46739 8.25375 7.48163 8.22812 7.50701L7.5053 8.22812C7.47992 8.25375 7.46568 8.28837 7.46568 8.32444C7.46568 8.36051 7.47992 8.39513 7.5053 8.42076L9.78456 10.7L9.03617 11.4484C9.01815 11.4665 9.00557 11.4893 8.99986 11.5142C8.99416 11.5392 8.99556 11.5652 9.00391 11.5893C9.01225 11.6135 9.02721 11.6348 9.04708 11.6509C9.06695 11.667 9.09093 11.6771 9.1163 11.6803L11.8473 12.0025C11.9343 12.0127 12.0093 11.9394 11.999 11.8507L11.6768 9.11971ZM3.77188 7.50701C3.74625 7.48163 3.71163 7.46739 3.67556 7.46739C3.63949 7.46739 3.60488 7.48163 3.57924 7.50701L1.29998 9.78456L0.555002 9.03958C0.536886 9.02156 0.514075 9.00898 0.489162 9.00327C0.46425 8.99757 0.438238 8.99897 0.414082 9.00732C0.389927 9.01567 0.3686 9.03062 0.352525 9.05049C0.336451 9.07036 0.326275 9.09434 0.323155 9.11971L0.000955625 11.849C-0.00927292 11.936 0.0640316 12.011 0.152679 12.0007L2.8837 11.6786C2.99622 11.6649 3.04395 11.5268 2.96383 11.4467L2.21544 10.7L4.4947 8.42246C4.54755 8.36961 4.54755 8.28267 4.4947 8.22983L3.77188 7.50701Z" fill="white"/>
</svg>
