<svg width="16" height="16" viewBox="0 0 16 16" fill="none" xmlns="http://www.w3.org/2000/svg">
<path d="M9.23077 11.0769C10.4167 11.0769 11.4311 10.6554 12.274 9.8125C13.117 8.96955 13.5385 7.95513 13.5385 6.76923C13.5385 5.58333 13.117 4.56891 12.274 3.72596C11.4311 2.88301 10.4167 2.46154 9.23077 2.46154C8.04487 2.46154 7.03045 2.88301 6.1875 3.72596C5.34455 4.56891 4.92308 5.58333 4.92308 6.76923C4.92308 7.95513 5.34455 8.96955 6.1875 9.8125C7.03045 10.6554 8.04487 11.0769 9.23077 11.0769ZM1.23077 16C0.897437 16 0.608976 15.8782 0.365386 15.6346C0.121797 15.391 2.20087e-06 15.1026 2.21544e-06 14.7692C2.23057e-06 14.4231 0.121797 14.1346 0.365386 13.9038L3.65385 10.6058C2.85898 9.45833 2.46154 8.17949 2.46154 6.76923C2.46154 5.85256 2.63943 4.97596 2.99519 4.13942C3.35096 3.30288 3.83173 2.58173 4.4375 1.97596C5.04327 1.37019 5.76442 0.889423 6.60096 0.533653C7.4375 0.177884 8.3141 -3.35961e-07 9.23077 -2.95892e-07C10.1474 -2.55824e-07 11.024 0.177884 11.8606 0.533654C12.6971 0.889423 13.4183 1.37019 14.024 1.97596C14.6298 2.58173 15.1106 3.30288 15.4663 4.13942C15.8221 4.97596 16 5.85256 16 6.76923C16 7.6859 15.8221 8.5625 15.4663 9.39904C15.1106 10.2356 14.6298 10.9567 14.024 11.5625C13.4183 12.1683 12.6971 12.649 11.8606 13.0048C11.024 13.3606 10.1474 13.5385 9.23077 13.5385C7.82051 13.5385 6.54167 13.141 5.39423 12.3462L2.09616 15.6442C1.85898 15.8814 1.57051 16 1.23077 16Z" fill="#A3A6C2"/>
</svg>
