<svg width="46" height="40" viewBox="0 0 46 40" fill="none" xmlns="http://www.w3.org/2000/svg">
<g clip-path="url(#clip0)">
<path fill-rule="evenodd" clip-rule="evenodd" d="M22.4047 33.7H8.86145V32.1647H22.4047V33.7Z" fill="white"/>
<path fill-rule="evenodd" clip-rule="evenodd" d="M8.02588 27.7862H26.8804V8.93188H8.02588V27.7862Z" fill="#4E24FA"/>
<path fill-rule="evenodd" clip-rule="evenodd" d="M12.4872 23.3248H31.3413V4.4707H12.4872V23.3248Z" fill="#AEF7FD"/>
<path fill-rule="evenodd" clip-rule="evenodd" d="M16.9487 18.8636H35.8035V0.00927734H16.9487V18.8636Z" fill="#413984"/>
<path fill-rule="evenodd" clip-rule="evenodd" d="M35.409 15.9039C35.1461 15.6412 34.8007 15.5093 34.4571 15.5093C34.1116 15.5093 33.767 15.6412 33.5035 15.9039C33.2417 16.1663 33.1094 16.5111 33.1094 16.8558V16.3037C33.1094 15.9596 32.9781 15.615 32.7152 15.3514C32.4522 15.0893 32.1078 14.9578 31.7633 14.9578C31.4187 14.9578 31.0738 15.0893 30.811 15.3514C30.5482 15.615 30.4165 15.9596 30.4165 16.3037V15.7873C30.4165 15.4419 30.2845 15.0974 30.0221 14.835C29.7587 14.5722 29.4142 14.4408 29.0698 14.4408C28.7257 14.4408 28.3795 14.5722 28.1175 14.835C27.8542 15.0974 27.7235 15.4419 27.7235 15.7873V10.7827C27.7235 10.4374 27.591 10.0932 27.3286 9.83095C27.0655 9.56771 26.7209 9.4364 26.3763 9.4364C26.0316 9.4364 25.6872 9.56771 25.4241 9.83095C25.1609 10.0932 25.029 10.4374 25.029 10.7827V22.2223L23.9286 20.233C23.7619 19.9322 23.4805 19.6948 23.1229 19.5922C22.7651 19.4881 22.4005 19.5408 22.0991 19.7073C21.7969 19.8742 21.5589 20.1552 21.4561 20.5138C21.3532 20.8707 21.4049 21.2358 21.572 21.5372L25.028 27.7863H35.8033V16.8558C35.8033 16.5111 35.6712 16.1663 35.409 15.9039Z" fill="white"/>
<path fill-rule="evenodd" clip-rule="evenodd" d="M25.0278 39.9075H35.8034V27.7863H25.0278V39.9075Z" fill="#413984"/>
<path fill-rule="evenodd" clip-rule="evenodd" d="M34.3437 29.9864C34.3437 30.3955 34.012 30.7272 33.6029 30.7272C33.1942 30.7272 32.8623 30.3955 32.8623 29.9864C32.8623 29.5773 33.1942 29.2456 33.6029 29.2456C34.012 29.2456 34.3437 29.5773 34.3437 29.9864Z" fill="white"/>
<path fill-rule="evenodd" clip-rule="evenodd" d="M24.4998 8.62167L22.6518 6.78369L22.3726 7.06409L24.2208 8.90208L24.4998 8.62167Z" fill="white"/>
<path fill-rule="evenodd" clip-rule="evenodd" d="M30.0973 6.78369L28.2494 8.62167L28.5284 8.90187L30.3763 7.0641L30.0973 6.78369Z" fill="white"/>
<path fill-rule="evenodd" clip-rule="evenodd" d="M26.18 7.93144L26.1752 3.98578L26.5707 3.98376L26.5754 7.92942L26.18 7.93144Z" fill="white"/>
<path fill-rule="evenodd" clip-rule="evenodd" d="M30.614 10.9832C30.6136 10.9832 29.2278 10.9782 29.2278 10.9782L29.229 10.5824H29.2302L30.6153 10.5877L30.614 10.9832Z" fill="white"/>
<path fill-rule="evenodd" clip-rule="evenodd" d="M23.5294 10.5824L22.1368 10.5826V10.9782L23.5294 10.978V10.5824Z" fill="white"/>
<path fill-rule="evenodd" clip-rule="evenodd" d="M10.0036 34.9101V30.9547L8.02563 32.9323L10.0036 34.9101Z" fill="#413984"/>
<path fill-rule="evenodd" clip-rule="evenodd" d="M21.8698 30.9546V34.9099L23.8475 32.9324L21.8698 30.9546Z" fill="#AEF7FD"/>
</g>
<defs>
<clipPath id="clip0">
<rect x="8" width="27.8788" height="40" fill="white"/>
</clipPath>
</defs>
</svg>
